<?xml version="1.0" encoding="iso-8859-1"?>
<!-- Uploaded to: SVG Repo, www.svgrepo.com, Generator: SVG Repo Mixer Tools -->
<!DOCTYPE svg PUBLIC "-//W3C//DTD SVG 1.1//EN" "http://www.w3.org/Graphics/SVG/1.1/DTD/svg11.dtd">
<svg fill="#000000" height="800px" width="800px" version="1.1" id="Capa_1" xmlns="http://www.w3.org/2000/svg" xmlns:xlink="http://www.w3.org/1999/xlink" 
	 viewBox="0 0 440 440" xml:space="preserve">
<path d="M435.607,95.522c-5.638-5.639-14.64-5.833-20.53-0.617l-69.98-69.98c5.217-5.891,5.022-14.893-0.617-20.531
	c-5.857-5.858-15.355-5.858-21.213,0c-51.851,51.851-59.18,96.133-56.522,133.858c-33.694-5.408-68.398-8.939-102.913,25.577
	c-34.192,34.191-29.444,66.935-22.883,98.636c-11.878-0.945-24.56-0.691-38.191,1.937c-32.926,6.348-65.102,25.603-98.363,58.864
	c-5.858,5.857-5.858,15.354,0,21.213c2.929,2.93,6.767,4.394,10.606,4.394c3.552,0,7.096-1.271,9.927-3.779l69.983,69.979
	c-5.221,5.891-5.027,14.895,0.613,20.534c2.929,2.929,6.768,4.394,10.606,4.394c3.839,0,7.678-1.465,10.606-4.394
	c33.261-33.261,52.515-65.435,58.862-98.361c2.628-13.633,2.882-26.315,1.937-38.195c31.7,6.563,64.443,11.311,98.636-22.881
	c34.516-34.516,30.985-69.221,25.577-102.913c37.725,2.658,82.007-4.67,133.858-56.522
	C441.465,110.877,441.465,101.38,435.607,95.522z M115.082,392.819l-67.901-67.897c7.396-5.995,14.489-10.985,21.316-15.111
	l61.694,61.695C126.066,378.331,121.076,385.423,115.082,392.819z M143.448,342.336l-45.782-45.783
	c17.748-5.372,33.781-5.311,49.072-3.292C148.758,308.554,148.82,324.588,143.448,342.336z M178.527,268.608
	c-1.943-0.409-3.912-0.823-5.902-1.233c-0.411-1.99-0.824-3.957-1.233-5.899c-2.738-13.01-5.081-24.178-5.116-34.56l46.811,46.81
	C202.705,273.69,191.537,271.346,178.527,268.608z M254.958,254.956c-3.321,3.321-6.57,6.099-9.784,8.429l-68.561-68.557
	c2.331-3.214,5.108-6.463,8.431-9.786c3.28-3.28,6.532-6.068,9.778-8.438l68.572,68.573
	C261.026,248.425,258.237,251.677,254.958,254.956z M274.93,214.287l-49.216-49.217c12.685-1.067,26.271,1.156,41.91,3.72
	c1.021,0.167,2.05,0.336,3.082,0.504c0.168,1.032,0.337,2.061,0.504,3.082C273.775,188.016,275.998,201.602,274.93,214.287z
	 M297.265,142.736c-1.404-13.638-1.522-27.688,1.775-42.583l40.809,40.808C324.952,144.259,310.902,144.14,297.265,142.736z
	 M370.629,129.317l-59.945-59.945c3.831-7.098,8.59-14.412,14.453-21.98l67.473,67.473
	C385.041,120.726,377.727,125.485,370.629,129.317z"/>
</svg>